<svg width="20" height="21" viewBox="0 0 20 21" fill="none" xmlns="http://www.w3.org/2000/svg">
<mask id="mask0_196_1239" style="mask-type:alpha" maskUnits="userSpaceOnUse" x="0" y="0" width="20" height="21">
<rect y="0.876831" width="20" height="20" fill="#D9D9D9"/>
</mask>
<g mask="url(#mask0_196_1239)">
<path d="M4.42247 17.9602C4.00692 17.9602 3.65192 17.813 3.35747 17.5187C3.06317 17.2243 2.91602 16.8693 2.91602 16.4537V5.29996C2.91602 4.8844 3.06317 4.5294 3.35747 4.23496C3.65192 3.94065 4.00692 3.7935 4.42247 3.7935H8.13081C8.18317 3.33086 8.38511 2.93746 8.73664 2.61329C9.08803 2.28898 9.50893 2.12683 9.99935 2.12683C10.495 2.12683 10.9187 2.28898 11.2702 2.61329C11.6217 2.93746 11.8209 3.33086 11.8679 3.7935H15.5762C15.9918 3.7935 16.3468 3.94065 16.6412 4.23496C16.9355 4.5294 17.0827 4.8844 17.0827 5.29996V10.5708C16.8775 10.4832 16.6721 10.4089 16.4664 10.3481C16.2607 10.2871 16.0495 10.2385 15.8327 10.2022V5.29996C15.8327 5.23579 15.8059 5.17704 15.7525 5.12371C15.6991 5.07023 15.6404 5.0435 15.5762 5.0435H4.42247C4.35831 5.0435 4.29956 5.07023 4.24622 5.12371C4.19275 5.17704 4.16602 5.23579 4.16602 5.29996V16.4537C4.16602 16.5179 4.19275 16.5766 4.24622 16.63C4.29956 16.6834 4.35831 16.7102 4.42247 16.7102H9.30393C9.3349 16.9409 9.38081 17.1591 9.44164 17.3647C9.50261 17.5704 9.57685 17.7689 9.66435 17.9602H4.42247ZM4.16602 16.7102V5.0435V10.2022V10.1397V16.7102ZM6.04102 14.7389H9.38872C9.42511 14.5221 9.47907 14.3109 9.5506 14.1052C9.62227 13.8995 9.70025 13.6941 9.78456 13.4891H6.04102V14.7389ZM6.04102 11.5018H11.3248C11.6837 11.1974 12.0666 10.9423 12.4737 10.7366C12.8808 10.5309 13.3167 10.3848 13.7814 10.2983V10.2518H6.04102V11.5018ZM6.04102 8.26454H13.9577V7.01475H6.04102V8.26454ZM9.99935 4.49871C10.1799 4.49871 10.3292 4.43968 10.4473 4.32162C10.5653 4.20357 10.6243 4.05426 10.6243 3.87371C10.6243 3.69315 10.5653 3.54384 10.4473 3.42579C10.3292 3.30773 10.1799 3.24871 9.99935 3.24871C9.81879 3.24871 9.66949 3.30773 9.55143 3.42579C9.43338 3.54384 9.37435 3.69315 9.37435 3.87371C9.37435 4.05426 9.43338 4.20357 9.55143 4.32162C9.66949 4.43968 9.81879 4.49871 9.99935 4.49871ZM14.9993 19.675C13.9588 19.675 13.0737 19.3101 12.3439 18.5804C11.6142 17.8507 11.2493 16.9655 11.2493 15.925C11.2493 14.8844 11.6142 13.9993 12.3439 13.2695C13.0737 12.5398 13.9588 12.175 14.9993 12.175C16.0399 12.175 16.925 12.5398 17.6548 13.2695C18.3845 13.9993 18.7493 14.8844 18.7493 15.925C18.7493 16.9655 18.3845 17.8507 17.6548 18.5804C16.925 19.3101 16.0399 19.675 14.9993 19.675ZM14.6308 18.3768H15.3679V16.2935H17.4512V15.5564H15.3679V13.4731H14.6308V15.5564H12.5475V16.2935H14.6308V18.3768Z" fill="#091F2C"/>
</g>
</svg>
