<svg width="16" height="16" viewBox="0 0 16 16" fill="none" xmlns="http://www.w3.org/2000/svg">
<path d="M12.6663 2.00008H11.9997V1.33341C11.9997 1.1566 11.9294 0.987034 11.8044 0.86201C11.6794 0.736986 11.5098 0.666748 11.333 0.666748C11.1562 0.666748 10.9866 0.736986 10.8616 0.86201C10.7366 0.987034 10.6663 1.1566 10.6663 1.33341V2.00008H5.33301V1.33341C5.33301 1.1566 5.26277 0.987034 5.13775 0.86201C5.01272 0.736986 4.84315 0.666748 4.66634 0.666748C4.48953 0.666748 4.31996 0.736986 4.19494 0.86201C4.06991 0.987034 3.99967 1.1566 3.99967 1.33341V2.00008H3.33301C2.80257 2.00008 2.29387 2.2108 1.91879 2.58587C1.54372 2.96094 1.33301 3.46965 1.33301 4.00008V13.3334C1.33301 13.8638 1.54372 14.3726 1.91879 14.7476C2.29387 15.1227 2.80257 15.3334 3.33301 15.3334H12.6663C13.1968 15.3334 13.7055 15.1227 14.0806 14.7476C14.4556 14.3726 14.6663 13.8638 14.6663 13.3334V4.00008C14.6663 3.46965 14.4556 2.96094 14.0806 2.58587C13.7055 2.2108 13.1968 2.00008 12.6663 2.00008ZM13.333 13.3334C13.333 13.5102 13.2628 13.6798 13.1377 13.8048C13.0127 13.9298 12.8432 14.0001 12.6663 14.0001H3.33301C3.1562 14.0001 2.98663 13.9298 2.8616 13.8048C2.73658 13.6798 2.66634 13.5102 2.66634 13.3334V7.33342H13.333V13.3334ZM13.333 6.00008H2.66634V4.00008C2.66634 3.82327 2.73658 3.6537 2.8616 3.52868C2.98663 3.40365 3.1562 3.33341 3.33301 3.33341H3.99967V4.00008C3.99967 4.17689 4.06991 4.34646 4.19494 4.47149C4.31996 4.59651 4.48953 4.66675 4.66634 4.66675C4.84315 4.66675 5.01272 4.59651 5.13775 4.47149C5.26277 4.34646 5.33301 4.17689 5.33301 4.00008V3.33341H10.6663V4.00008C10.6663 4.17689 10.7366 4.34646 10.8616 4.47149C10.9866 4.59651 11.1562 4.66675 11.333 4.66675C11.5098 4.66675 11.6794 4.59651 11.8044 4.47149C11.9294 4.34646 11.9997 4.17689 11.9997 4.00008V3.33341H12.6663C12.8432 3.33341 13.0127 3.40365 13.1377 3.52868C13.2628 3.6537 13.333 3.82327 13.333 4.00008V6.00008Z" fill="#9F9FA0"/>
<path d="M8 12.6667C8.13186 12.6667 8.26075 12.6276 8.37038 12.5543C8.48001 12.4811 8.56546 12.3769 8.61592 12.2551C8.66638 12.1333 8.67958 11.9993 8.65386 11.8699C8.62813 11.7406 8.56464 11.6218 8.47141 11.5286C8.37817 11.4354 8.25938 11.3719 8.13006 11.3461C8.00074 11.3204 7.8667 11.3336 7.74488 11.3841C7.62306 11.4345 7.51894 11.52 7.44569 11.6296C7.37243 11.7393 7.33333 11.8682 7.33333 12C7.33333 12.1768 7.40357 12.3464 7.5286 12.4714C7.65362 12.5964 7.82319 12.6667 8 12.6667ZM11.3333 12.6667C11.4652 12.6667 11.5941 12.6276 11.7037 12.5543C11.8133 12.4811 11.8988 12.3769 11.9493 12.2551C11.9997 12.1333 12.0129 11.9993 11.9872 11.8699C11.9615 11.7406 11.898 11.6218 11.8047 11.5286C11.7115 11.4354 11.5927 11.3719 11.4634 11.3461C11.3341 11.3204 11.2 11.3336 11.0782 11.3841C10.9564 11.4345 10.8523 11.52 10.779 11.6296C10.7058 11.7393 10.6667 11.8682 10.6667 12C10.6667 12.1768 10.7369 12.3464 10.8619 12.4714C10.987 12.5964 11.1565 12.6667 11.3333 12.6667ZM11.3333 10C11.4652 10 11.5941 9.96091 11.7037 9.88765C11.8133 9.8144 11.8988 9.71028 11.9493 9.58846C11.9997 9.46664 12.0129 9.3326 11.9872 9.20328C11.9615 9.07396 11.898 8.95517 11.8047 8.86193C11.7115 8.7687 11.5927 8.70521 11.4634 8.67948C11.3341 8.65376 11.2 8.66696 11.0782 8.71742C10.9564 8.76788 10.8523 8.85333 10.779 8.96296C10.7058 9.07259 10.6667 9.20148 10.6667 9.33334C10.6667 9.51015 10.7369 9.67972 10.8619 9.80474C10.987 9.92977 11.1565 10 11.3333 10ZM8 10C8.13186 10 8.26075 9.96091 8.37038 9.88765C8.48001 9.8144 8.56546 9.71028 8.61592 9.58846C8.66638 9.46664 8.67958 9.3326 8.65386 9.20328C8.62813 9.07396 8.56464 8.95517 8.47141 8.86193C8.37817 8.7687 8.25938 8.70521 8.13006 8.67948C8.00074 8.65376 7.8667 8.66696 7.74488 8.71742C7.62306 8.76788 7.51894 8.85333 7.44569 8.96296C7.37243 9.07259 7.33333 9.20148 7.33333 9.33334C7.33333 9.51015 7.40357 9.67972 7.5286 9.80474C7.65362 9.92977 7.82319 10 8 10ZM4.66667 10C4.79852 10 4.92741 9.96091 5.03705 9.88765C5.14668 9.8144 5.23213 9.71028 5.28259 9.58846C5.33305 9.46664 5.34625 9.3326 5.32052 9.20328C5.2948 9.07396 5.23131 8.95517 5.13807 8.86193C5.04484 8.7687 4.92605 8.70521 4.79673 8.67948C4.66741 8.65376 4.53336 8.66696 4.41154 8.71742C4.28973 8.76788 4.18561 8.85333 4.11235 8.96296C4.0391 9.07259 4 9.20148 4 9.33334C4 9.51015 4.07024 9.67972 4.19526 9.80474C4.32029 9.92977 4.48986 10 4.66667 10ZM4.66667 12.6667C4.79852 12.6667 4.92741 12.6276 5.03705 12.5543C5.14668 12.4811 5.23213 12.3769 5.28259 12.2551C5.33305 12.1333 5.34625 11.9993 5.32052 11.8699C5.2948 11.7406 5.23131 11.6218 5.13807 11.5286C5.04484 11.4354 4.92605 11.3719 4.79673 11.3461C4.66741 11.3204 4.53336 11.3336 4.41154 11.3841C4.28973 11.4345 4.18561 11.52 4.11235 11.6296C4.0391 11.7393 4 11.8682 4 12C4 12.1768 4.07024 12.3464 4.19526 12.4714C4.32029 12.5964 4.48986 12.6667 4.66667 12.6667Z" fill="#008FD1"/>
</svg>
