<svg width="18" height="19" viewBox="0 0 18 19" fill="none" xmlns="http://www.w3.org/2000/svg">
<g clip-path="url(#clip0_74_687)">
<path fill-rule="evenodd" clip-rule="evenodd" d="M5.93164 14.3814C5.93164 14.0426 6.20638 13.7678 6.54528 13.7678H11.4544C11.7933 13.7678 12.068 14.0426 12.068 14.3814C12.068 14.7203 11.7933 14.9951 11.4544 14.9951H6.54528C6.20638 14.9951 5.93164 14.7203 5.93164 14.3814Z" fill="#05324A"/>
<path fill-rule="evenodd" clip-rule="evenodd" d="M6.29805 0.676947H11.6989C11.8788 0.676898 12.0167 0.676857 12.1373 0.689792C13.2452 0.808699 14.0932 1.71854 14.1447 2.82068C15.119 3.11161 15.8131 4.01307 15.8257 5.04699C16.3175 5.19454 16.7416 5.42726 17.0888 5.80229C17.6222 6.3785 17.7876 7.08861 17.7939 7.91809C17.7999 8.71557 17.6578 9.72333 17.4813 10.9748L17.1221 13.5223C16.9842 14.5009 16.8721 15.2959 16.6978 15.9188C16.5153 16.5706 16.2464 17.1068 15.7486 17.5191C15.2546 17.9281 14.6687 18.1044 13.976 18.1875C13.3063 18.2678 12.4638 18.2678 11.4148 18.2678H6.58238C5.5334 18.2678 4.69086 18.2678 4.02114 18.1875C3.32852 18.1044 2.74253 17.9281 2.2486 17.5191C1.75073 17.1068 1.48183 16.5706 1.2994 15.9188C1.12502 15.2959 1.01295 14.5009 0.874998 13.5223L0.515824 10.9748C0.339359 9.72333 0.197257 8.71557 0.203312 7.91809C0.209603 7.08861 0.374917 6.3785 0.908363 5.80229C1.25548 5.42735 1.67949 5.19464 2.17108 5.04709C2.1836 4.01307 2.8779 3.11151 3.85226 2.82063C3.90372 1.71852 4.75175 0.808699 5.8597 0.689792C5.98026 0.676857 6.11817 0.676898 6.29805 0.676947ZM3.42596 4.83154C4.18342 4.76784 5.11199 4.76785 6.2298 4.76786H11.7673C12.8849 4.76785 13.8134 4.76784 14.5708 4.83151C14.4586 4.33436 14.0145 3.94967 13.4672 3.94967H4.52956C3.98227 3.94967 3.53818 4.33437 3.42596 4.83154ZM12.0063 1.91006C12.4565 1.95837 12.8122 2.29394 12.8994 2.7224H5.09757C5.18472 2.29394 5.54048 1.95837 5.99066 1.91006C6.0367 1.90512 6.10232 1.90422 6.33212 1.90422H11.6649C11.8946 1.90422 11.9602 1.90512 12.0063 1.91006ZM1.80894 6.63605C2.05677 6.36836 2.42945 6.1908 3.15359 6.09449C3.89088 5.99642 4.87786 5.99513 6.27599 5.99513H11.7212C13.1193 5.99513 14.1062 5.99642 14.8436 6.09449C15.5677 6.1908 15.9404 6.36836 16.1882 6.63605C16.4303 6.89752 16.5615 7.25334 16.5666 7.92742C16.5719 8.62296 16.4442 9.54014 16.259 10.8537L15.9129 13.3083C15.7675 14.3398 15.6656 15.0532 15.5159 15.5881C15.3717 16.1031 15.202 16.3783 14.9659 16.5738C14.7258 16.7726 14.4033 16.9002 13.8298 16.969C13.2418 17.0396 12.473 17.0406 11.3751 17.0406H6.62205C5.52414 17.0406 4.75543 17.0396 4.16737 16.969C3.59381 16.9002 3.27142 16.7726 3.03128 16.5738C2.79508 16.3783 2.62542 16.1031 2.48124 15.5881C2.33154 15.0532 2.22968 14.3398 2.08423 13.3083L1.73816 10.8537C1.55297 9.54014 1.42527 8.62296 1.43054 7.92742C1.43567 7.25334 1.56688 6.89752 1.80894 6.63605Z" fill="#05324A"/>
</g>
<defs>
<clipPath id="clip0_74_687">
<rect width="18" height="18" fill="white" transform="translate(0 0.472351)"/>
</clipPath>
</defs>
</svg>
