<svg width="18" height="19" viewBox="0 0 18 19" fill="none" xmlns="http://www.w3.org/2000/svg">
<path d="M16.5 6.86235V3.45735C16.5 2.39985 16.02 1.97235 14.8275 1.97235H11.7975C10.605 1.97235 10.125 2.39985 10.125 3.45735V6.85485C10.125 7.91985 10.605 8.33985 11.7975 8.33985H14.8275C16.02 8.34735 16.5 7.91985 16.5 6.86235Z" stroke="#05324A" stroke-width="1.5" stroke-linecap="round" stroke-linejoin="round"/>
<path d="M16.5 15.2999V12.2699C16.5 11.0774 16.02 10.5974 14.8275 10.5974H11.7975C10.605 10.5974 10.125 11.0774 10.125 12.2699V15.2999C10.125 16.4924 10.605 16.9724 11.7975 16.9724H14.8275C16.02 16.9724 16.5 16.4924 16.5 15.2999Z" stroke="#05324A" stroke-width="1.5" stroke-linecap="round" stroke-linejoin="round"/>
<path d="M7.875 6.86235V3.45735C7.875 2.39985 7.395 1.97235 6.2025 1.97235H3.1725C1.98 1.97235 1.5 2.39985 1.5 3.45735V6.85485C1.5 7.91985 1.98 8.33985 3.1725 8.33985H6.2025C7.395 8.34735 7.875 7.91985 7.875 6.86235Z" stroke="#05324A" stroke-width="1.5" stroke-linecap="round" stroke-linejoin="round"/>
<path d="M7.875 15.2999V12.2699C7.875 11.0774 7.395 10.5974 6.2025 10.5974H3.1725C1.98 10.5974 1.5 11.0774 1.5 12.2699V15.2999C1.5 16.4924 1.98 16.9724 3.1725 16.9724H6.2025C7.395 16.9724 7.875 16.4924 7.875 15.2999Z" stroke="#05324A" stroke-width="1.5" stroke-linecap="round" stroke-linejoin="round"/>
</svg>
