<svg width="20" height="21" viewBox="0 0 20 21" fill="none" xmlns="http://www.w3.org/2000/svg">
<mask id="mask0_287_127" style="mask-type:alpha" maskUnits="userSpaceOnUse" x="0" y="0" width="20" height="21">
<rect y="0.876831" width="20" height="20" fill="#D9D9D9"/>
</mask>
<g mask="url(#mask0_287_127)">
<path d="M4.42247 17.9602C4.0015 17.9602 3.64518 17.8144 3.35352 17.5227C3.06185 17.231 2.91602 16.8747 2.91602 16.4537V5.29998C2.91602 4.879 3.06185 4.52268 3.35352 4.23102C3.64518 3.93935 4.0015 3.79352 4.42247 3.79352H11.6356L10.3856 5.04352H4.42247C4.35831 5.04352 4.29956 5.07025 4.24622 5.12372C4.19275 5.17706 4.16602 5.23581 4.16602 5.29998V16.4537C4.16602 16.5179 4.19275 16.5766 4.24622 16.63C4.29956 16.6834 4.35831 16.7102 4.42247 16.7102H15.5762C15.6404 16.7102 15.6991 16.6834 15.7525 16.63C15.8059 16.5766 15.8327 16.5179 15.8327 16.4537V10.4377L17.0827 9.18768V16.4537C17.0827 16.8747 16.9368 17.231 16.6452 17.5227C16.3535 17.8144 15.9972 17.9602 15.5762 17.9602H4.42247ZM7.91602 12.9602V10.0996L15.4658 2.54998C15.595 2.42067 15.7371 2.32636 15.8921 2.26706C16.0469 2.20775 16.2045 2.1781 16.3648 2.1781C16.5282 2.1781 16.6853 2.20775 16.8358 2.26706C16.9865 2.32636 17.1238 2.41796 17.2477 2.54185L18.2941 3.58518C18.4148 3.71449 18.5075 3.85713 18.5723 4.0131C18.6368 4.16907 18.6691 4.3272 18.6691 4.48748C18.6691 4.64775 18.6416 4.80317 18.5866 4.95373C18.5316 5.10442 18.4395 5.24435 18.3102 5.37352L10.7364 12.9602H7.91602ZM9.16602 11.7102H10.2046L15.3983 6.51622L14.8791 5.99706L14.3231 5.46185L9.16602 10.6189V11.7102Z" fill="#1C1B1F"/>
</g>
</svg>
