<svg width="29" height="29" viewBox="0 0 29 29" fill="none" xmlns="http://www.w3.org/2000/svg">
<rect x="0.09375" y="0.536255" width="28" height="28" rx="4" fill="#D7F4E7"/>
<g clip-path="url(#clip0_196_1384)">
<path d="M17.0938 6.28644H10.3437C9.89375 6.28644 9.59375 6.58644 9.59375 7.03644V10.7864L17.0938 14.5364L20.0938 15.6614L23.0938 14.5364V10.7864L17.0938 6.28644Z" fill="#21A366"/>
<path d="M9.59375 10.7864H17.0938V14.5364H9.59375V10.7864Z" fill="#107C41"/>
<path d="M23.0937 7.03644V10.7864H17.0938V6.28644H22.3437C22.7187 6.28644 23.0937 6.66144 23.0937 7.03644Z" fill="#33C481"/>
<path d="M17.0938 14.5363H9.59375V22.0363C9.59375 22.4863 9.89375 22.7863 10.3437 22.7863H22.3438C22.7937 22.7863 23.0938 22.4863 23.0938 22.0363V18.2863L17.0938 14.5363Z" fill="#185C37"/>
<path opacity="0.5" d="M15.4437 10.0363H9.59375V20.5363H15.2937C15.8187 20.5363 16.3438 20.0113 16.3438 19.4863V10.9363C16.3438 10.4113 15.9688 10.0363 15.4437 10.0363Z" fill="black"/>
<path d="M14.6938 19.7861H5.99375C5.46875 19.7861 5.09375 19.4111 5.09375 18.8861V10.1861C5.09375 9.66107 5.46875 9.28607 5.99375 9.28607H14.7688C15.2188 9.28607 15.5938 9.66107 15.5938 10.1861V18.9611C15.5938 19.4111 15.2188 19.7861 14.6938 19.7861Z" fill="#107C41"/>
<path d="M7.64453 17.5361L9.59453 14.5361L7.79453 11.5361H9.21953L10.1945 13.4111C10.3445 13.6361 10.3445 13.7861 10.4195 13.8611L10.6445 13.4111L11.6945 11.5361H13.0445L11.2445 14.5361L13.1195 17.5361H11.6195L10.4945 15.4361C10.4945 15.3611 10.4195 15.2861 10.3445 15.1361C10.3445 15.2111 10.2695 15.2861 10.1945 15.4361L9.06953 17.5361H7.64453Z" fill="white"/>
<path d="M17.0938 14.5363H23.0937V18.2863H17.0938V14.5363Z" fill="#107C41"/>
</g>
<defs>
<clipPath id="clip0_196_1384">
<rect width="18" height="18" fill="white" transform="translate(5.09375 5.53625)"/>
</clipPath>
</defs>
</svg>
