<svg width="20" height="20" viewBox="0 0 20 20" fill="none" xmlns="http://www.w3.org/2000/svg">
<mask id="mask0_240_332" style="mask-type:alpha" maskUnits="userSpaceOnUse" x="0" y="0" width="20" height="20">
<rect width="20" height="20" fill="#D9D9D9"/>
</mask>
<g mask="url(#mask0_240_332)">
<path d="M14.4998 18.1232L18 14.6593L17.2126 13.88L15.0591 16.0111V11.1232H13.9409V16.0111L11.7874 13.88L11 14.6593L14.4998 18.1232Z" fill="#091F2C"/>
<path d="M4.42247 17.0833C4.00692 17.0833 3.65192 16.9361 3.35747 16.6418C3.06317 16.3474 2.91602 15.9924 2.91602 15.5768V4.42308C2.91602 4.00753 3.06317 3.65253 3.35747 3.35808C3.65192 3.06378 4.00692 2.91663 4.42247 2.91663H15.5762C15.9918 2.91663 16.3468 3.06378 16.6412 3.35808C16.9355 3.65253 17.0827 4.00753 17.0827 4.42308V9.69392C16.8775 9.60628 16.6721 9.53204 16.4664 9.47121C16.2607 9.41024 16.0495 9.36163 15.8327 9.32538V4.42308C15.8327 4.35892 15.8059 4.30017 15.7525 4.24683C15.6991 4.19336 15.6404 4.16663 15.5762 4.16663H4.42247C4.35831 4.16663 4.29956 4.19336 4.24622 4.24683C4.19275 4.30017 4.16602 4.35892 4.16602 4.42308V15.5768C4.16602 15.641 4.19275 15.6998 4.24622 15.7531C4.29956 15.8066 4.35831 15.8333 4.42247 15.8333H9.30393C9.3349 16.064 9.38081 16.2822 9.44164 16.4879C9.50261 16.6936 9.57685 16.892 9.66435 17.0833H4.42247ZM4.16602 15.8333V4.16663V9.32538V9.26288V15.8333ZM6.04102 13.862H9.38872C9.42511 13.6452 9.47907 13.434 9.5506 13.2283C9.62227 13.0226 9.70025 12.8173 9.78456 12.6123H6.04102V13.862ZM6.04102 10.625H11.3248C11.6837 10.3205 12.0666 10.0654 12.4737 9.85975C12.8808 9.65406 13.3167 9.50795 13.7814 9.42142V9.37496H6.04102V10.625ZM6.04102 7.38767H13.9577V6.13788H6.04102V7.38767Z" fill="#091F2C"/>
</g>
</svg>
