<svg width="16" height="16" viewBox="0 0 16 16" fill="none" xmlns="http://www.w3.org/2000/svg">
<g opacity="0.7">
<mask id="mask0_290_626" style="mask-type:alpha" maskUnits="userSpaceOnUse" x="0" y="0" width="16" height="16">
<rect width="16" height="16" fill="#D9D9D9"/>
</mask>
<g mask="url(#mask0_290_626)">
<path d="M9.87785 7.38926C10.2097 7.03036 10.4551 6.61828 10.6142 6.15302C10.7732 5.68776 10.8526 5.20809 10.8526 4.71401C10.8526 4.21993 10.7732 3.74026 10.6142 3.27501C10.4551 2.80975 10.2097 2.39767 9.87785 2.03877C10.5627 2.11735 11.1313 2.41137 11.5837 2.92083C12.036 3.43041 12.2622 4.02814 12.2622 4.71401C12.2622 5.40001 12.036 5.99774 11.5837 6.5072C11.1313 7.01666 10.5627 7.31068 9.87785 7.38926ZM13.972 13.3333V11.514C13.972 11.0912 13.8855 10.689 13.7125 10.3074C13.5395 9.92576 13.294 9.59827 12.9761 9.32493C13.574 9.52279 14.1244 9.78974 14.6272 10.1258C15.1301 10.4618 15.3815 10.9245 15.3815 11.514V13.3333H13.972ZM6.56357 7.42803C5.81299 7.42803 5.17041 7.16231 4.63583 6.63088C4.10139 6.09932 3.83417 5.46037 3.83417 4.71401C3.83417 3.96766 4.10139 3.32877 4.63583 2.79734C5.17041 2.26578 5.81299 2 6.56357 2C7.31416 2 7.95668 2.26578 8.49112 2.79734C9.02569 3.32877 9.29298 3.96766 9.29298 4.71401C9.29298 5.46037 9.02569 6.09932 8.49112 6.63088C7.95668 7.16231 7.31416 7.42803 6.56357 7.42803ZM0.714844 13.3333V11.6094C0.714844 11.2296 0.818561 10.878 1.026 10.5544C1.23343 10.2308 1.5106 9.98198 1.85749 9.80802C2.62835 9.43233 3.40597 9.15052 4.19035 8.96261C4.9746 8.77469 5.76568 8.68074 6.56357 8.68074C7.36134 8.68074 8.15241 8.77469 8.93679 8.96261C9.72104 9.15052 10.4986 9.43233 11.2695 9.80802C11.6164 9.98198 11.8935 10.2308 12.101 10.5544C12.3085 10.878 12.4123 11.2296 12.4123 11.6094V13.3333H0.714844ZM6.56357 6.26488C6.99248 6.26488 7.35965 6.11302 7.66509 5.80931C7.97052 5.5056 8.12324 5.1405 8.12324 4.71401C8.12324 4.28753 7.97052 3.92243 7.66509 3.61872C7.35965 3.315 6.99248 3.16315 6.56357 3.16315C6.13467 3.16315 5.7675 3.315 5.46206 3.61872C5.15663 3.92243 5.00391 4.28753 5.00391 4.71401C5.00391 5.1405 5.15663 5.5056 5.46206 5.80931C5.7675 6.11302 6.13467 6.26488 6.56357 6.26488ZM1.88459 12.1702H11.2426V11.6094C11.2426 11.4523 11.1968 11.3069 11.1053 11.1732C11.0138 11.0395 10.8896 10.9305 10.7325 10.8459C10.0607 10.5169 9.37571 10.2676 8.6775 10.098C7.97916 9.9286 7.27452 9.84389 6.56357 9.84389C5.8525 9.84389 5.14786 9.9286 4.44965 10.098C3.75131 10.2676 3.06623 10.5169 2.3944 10.8459C2.2374 10.9305 2.11321 11.0395 2.02184 11.1732C1.93034 11.3069 1.88459 11.4523 1.88459 11.6094V12.1702Z" fill="black"/>
</g>
</g>
</svg>
