<svg width="18" height="19" viewBox="0 0 18 19" fill="none" xmlns="http://www.w3.org/2000/svg">
<g clip-path="url(#clip0_74_692)">
<path d="M13 8.97235C13.89 8.97235 14.76 9.23627 15.5001 9.73074C16.2401 10.2252 16.8169 10.928 17.1575 11.7503C17.498 12.5725 17.5872 13.4773 17.4135 14.3503C17.2399 15.2232 16.8113 16.025 16.182 16.6543C15.5526 17.2837 14.7508 17.7122 13.8779 17.8859C13.005 18.0595 12.1002 17.9704 11.2779 17.6298C10.4557 17.2892 9.75285 16.7124 9.25839 15.9724C8.76392 15.2324 8.5 14.3624 8.5 13.4723C8.5 12.2789 8.97411 11.1343 9.81802 10.2904C10.6619 9.44646 11.8065 8.97235 13 8.97235Z" stroke="#05324A"/>
<path d="M6.51702 15.1427C6.62206 15.1427 6.72281 15.1844 6.79708 15.2587C6.87136 15.3329 6.91309 15.4337 6.91309 15.5387C6.91309 15.6438 6.87136 15.7445 6.79708 15.8188C6.72281 15.8931 6.62206 15.9348 6.51702 15.9348H0.922776C0.678284 15.9348 0.443784 15.8378 0.270771 15.665C0.0977571 15.4923 0.000372134 15.2579 0 15.0134L0 1.38951C0.00160109 1.14683 0.0990334 0.914604 0.271074 0.743429C0.356274 0.657253 0.457779 0.588903 0.569668 0.542363C0.681558 0.495822 0.801593 0.472024 0.922776 0.472354H16.2503C16.4948 0.473095 16.7291 0.570554 16.902 0.743448C17.0749 0.916341 17.1723 1.15062 17.1731 1.39513V8.33772C17.1763 8.39181 17.1684 8.44599 17.1499 8.49692C17.1315 8.54786 17.1028 8.59448 17.0656 8.63392C17.0284 8.67336 16.9836 8.70478 16.9338 8.72626C16.8841 8.74774 16.8305 8.75882 16.7763 8.75882C16.7221 8.75882 16.6685 8.74774 16.6187 8.72626C16.569 8.70478 16.5242 8.67336 16.487 8.63392C16.4498 8.59448 16.4211 8.54786 16.4027 8.49692C16.3842 8.44599 16.3763 8.39181 16.3795 8.33772V1.39513C16.3797 1.37815 16.3764 1.36131 16.3699 1.34562C16.3633 1.32994 16.3537 1.31572 16.3416 1.30384C16.3175 1.27933 16.2847 1.26522 16.2503 1.26451H0.922776C0.888266 1.26533 0.855266 1.27883 0.830077 1.30243C0.806985 1.32783 0.793995 1.36081 0.793559 1.39513V15.012C0.79345 15.0288 0.796756 15.0454 0.803276 15.0609C0.809795 15.0763 0.819392 15.0903 0.831481 15.1019C0.856458 15.126 0.889482 15.1401 0.92418 15.1413H6.51702V15.1427ZM3.34137 9.60179V8.80121H8.20107V9.60179H3.34137ZM3.34137 6.99358V6.19441H13.8317V6.98656L3.34137 6.99358ZM3.34137 4.38678V3.5862H13.8317V4.37975L3.34137 4.38678ZM3.34137 12.2184V11.4094H6.86534V12.2114L3.34137 12.2184Z" fill="#05324A" stroke="#05324A" stroke-width="0.56"/>
<path d="M10.0835 13.668L11.111 13.6547L11.1873 13.673C11.3947 13.7825 11.5909 13.9089 11.7737 14.0505C11.9074 14.1537 12.0336 14.2648 12.1513 14.3832C12.5056 13.8602 12.8987 13.36 13.3277 12.8862C13.773 12.3941 14.2579 11.9332 14.7782 11.5073L14.8781 11.4724H16L15.7731 11.7019C15.0886 12.3948 14.4531 13.1271 13.8705 13.8942C13.3066 14.64 12.7949 15.4178 12.3383 16.2229L12.1985 16.4724L12.0678 16.2195C11.8384 15.7592 11.5475 15.3267 11.2018 14.9321C10.8572 14.5407 10.4524 14.1973 10 13.9125L10.0835 13.6613V13.668Z" fill="#05324A"/>
</g>
<defs>
<clipPath id="clip0_74_692">
<rect width="18" height="18" fill="white" transform="translate(0 0.472351)"/>
</clipPath>
</defs>
</svg>
