<svg width="14" height="14" viewBox="0 0 14 14" fill="none" xmlns="http://www.w3.org/2000/svg">
<mask id="mask0_290_638" style="mask-type:alpha" maskUnits="userSpaceOnUse" x="0" y="0" width="14" height="14">
<rect width="14" height="14" fill="#D9D9D9"/>
</mask>
<g mask="url(#mask0_290_638)">
<path d="M6.5612 9.77091H7.4362V6.41674H6.5612V9.77091ZM6.9987 5.41836C7.13218 5.41836 7.24409 5.3732 7.33441 5.28288C7.42473 5.19256 7.46989 5.08066 7.46989 4.94718C7.46989 4.81369 7.42473 4.70179 7.33441 4.61147C7.24409 4.52125 7.13218 4.47613 6.9987 4.47613C6.86521 4.47613 6.75331 4.52125 6.66299 4.61147C6.57267 4.70179 6.52751 4.81369 6.52751 4.94718C6.52751 5.08066 6.57267 5.19256 6.66299 5.28288C6.75331 5.3732 6.86521 5.41836 6.9987 5.41836ZM6.99972 12.5417C6.23322 12.5417 5.51275 12.3963 4.83832 12.1054C4.16389 11.8145 3.57725 11.4197 3.07841 10.9211C2.57956 10.4224 2.18459 9.83604 1.89351 9.16191C1.60252 8.48777 1.45703 7.7675 1.45703 7.00109C1.45703 6.23459 1.60248 5.51413 1.89336 4.8397C2.18425 4.16527 2.57902 3.57863 3.07768 3.07978C3.57633 2.58093 4.16273 2.18597 4.83686 1.89488C5.511 1.6039 6.23127 1.4584 6.99768 1.4584C7.76418 1.4584 8.48464 1.60385 9.15907 1.89474C9.8335 2.18563 10.4201 2.5804 10.919 3.07905C11.4178 3.5777 11.8128 4.1641 12.1039 4.83824C12.3949 5.51238 12.5404 6.23265 12.5404 6.99905C12.5404 7.76555 12.3949 8.48602 12.104 9.16045C11.8131 9.83488 11.4184 10.4215 10.9197 10.9204C10.4211 11.4192 9.83467 11.8142 9.16053 12.1053C8.48639 12.3962 7.76612 12.5417 6.99972 12.5417ZM6.9987 11.6667C8.30148 11.6667 9.40495 11.2147 10.3091 10.3105C11.2133 9.40632 11.6654 8.30285 11.6654 7.00007C11.6654 5.69729 11.2133 4.59382 10.3091 3.68965C9.40495 2.78549 8.30148 2.3334 6.9987 2.3334C5.69592 2.3334 4.59245 2.78549 3.68828 3.68965C2.78411 4.59382 2.33203 5.69729 2.33203 7.00007C2.33203 8.30285 2.78411 9.40632 3.68828 10.3105C4.59245 11.2147 5.69592 11.6667 6.9987 11.6667Z" fill="#091F2C"/>
</g>
</svg>
