<svg width="20" height="21" viewBox="0 0 20 21" fill="none" xmlns="http://www.w3.org/2000/svg">
<mask id="mask0_297_238" style="mask-type:alpha" maskUnits="userSpaceOnUse" x="0" y="0" width="20" height="21">
<rect y="0.876831" width="20" height="20" fill="#D9D9D9"/>
</mask>
<g mask="url(#mask0_297_238)">
<path d="M9.99854 18.9537C9.58396 18.9537 9.22951 18.8062 8.93521 18.5112C8.64076 18.2162 8.49354 17.8615 8.49354 17.4472H11.5065C11.5065 17.8629 11.3588 18.2179 11.0635 18.5122C10.7683 18.8065 10.4133 18.9537 9.99854 18.9537ZM14.9038 11.8785V9.37848H12.4038V8.12848H14.9038V5.62848H16.1538V8.12848H18.6538V9.37848H16.1538V11.8785H14.9038ZM3.75 16.6139V15.3641H5.25646V9.14598C5.25646 8.02528 5.60236 7.03438 6.29417 6.17327C6.98583 5.31216 7.87389 4.76139 8.95833 4.52098V4.00181C8.95833 3.71251 9.05951 3.46653 9.26188 3.26389C9.46424 3.06139 9.70993 2.96014 9.99896 2.96014C10.2881 2.96014 10.5342 3.06139 10.7371 3.26389C10.9401 3.46653 11.0417 3.71251 11.0417 4.00181V4.52098C11.2682 4.57653 11.4885 4.64091 11.7027 4.7141C11.9169 4.7873 12.1207 4.8832 12.3142 5.00181C12.1539 5.1482 12.005 5.30292 11.8675 5.46598C11.7299 5.62903 11.6095 5.80445 11.5065 5.99223C11.2765 5.87889 11.0349 5.79396 10.7819 5.73744C10.5288 5.68077 10.2682 5.65244 10 5.65244C9.03528 5.65244 8.21181 5.99355 7.52958 6.67577C6.8475 7.35785 6.50646 8.18126 6.50646 9.14598V15.3641H13.4935V13.2391C13.6848 13.3437 13.8833 13.4299 14.089 13.4979C14.2947 13.5656 14.5128 13.6193 14.7435 13.6589V15.3641H16.25V16.6139H3.75Z" fill="#1C1B1F"/>
</g>
</svg>
