<svg width="25" height="25" viewBox="0 0 25 25" fill="none" xmlns="http://www.w3.org/2000/svg">
<mask id="mask0_107_758" style="mask-type:alpha" maskUnits="userSpaceOnUse" x="0" y="0" width="25" height="25">
<rect x="0.759766" y="0.0939636" width="24" height="24" fill="#FF6633"/>
</mask>
<g mask="url(#mask0_107_758)">
<path d="M18.7598 12.9784L20.2598 14.4784V19.7862C20.2598 20.2914 20.0848 20.7189 19.7348 21.0689C19.3848 21.4189 18.9572 21.5939 18.452 21.5939H5.06752C4.56235 21.5939 4.13477 21.4189 3.78477 21.0689C3.43477 20.7189 3.25977 20.2914 3.25977 19.7862V6.4017C3.25977 5.89653 3.43477 5.46895 3.78477 5.11895C4.13477 4.76895 4.56235 4.59395 5.06752 4.59395H10.5003C10.4053 4.83628 10.3357 5.08337 10.2915 5.3352C10.2473 5.5872 10.2118 5.84012 10.1848 6.09395H5.06752C4.99052 6.09395 4.92002 6.12603 4.85602 6.1902C4.79185 6.2542 4.75977 6.3247 4.75977 6.4017V19.7862C4.75977 19.8632 4.79185 19.9337 4.85602 19.9977C4.92002 20.0619 4.99052 20.0939 5.06752 20.0939H18.452C18.529 20.0939 18.5995 20.0619 18.6635 19.9977C18.7277 19.9337 18.7598 19.8632 18.7598 19.7862V12.9784ZM19.6368 8.91695L22.8943 12.1747L21.8405 13.2284L18.5828 9.97095C18.2584 10.2029 17.8979 10.384 17.501 10.5142C17.1044 10.6442 16.6906 10.7092 16.2598 10.7092C15.1123 10.7092 14.1395 10.3102 13.3415 9.5122C12.5435 8.7142 12.1445 7.74145 12.1445 6.59395C12.1445 5.44645 12.5435 4.4737 13.3415 3.6757C14.1395 2.8777 15.1123 2.4787 16.2598 2.4787C17.4073 2.4787 18.38 2.8777 19.178 3.6757C19.976 4.4737 20.375 5.44645 20.375 6.59395C20.375 7.04395 20.3068 7.46253 20.1703 7.8497C20.0338 8.23686 19.8559 8.59261 19.6368 8.91695ZM16.2598 9.20945C16.9918 9.20945 17.6107 8.95653 18.1165 8.4507C18.6223 7.94487 18.8753 7.32595 18.8753 6.59395C18.8753 5.86195 18.6223 5.24303 18.1165 4.7372C17.6107 4.23136 16.9918 3.97845 16.2598 3.97845C15.5278 3.97845 14.9088 4.23136 14.403 4.7372C13.8972 5.24303 13.6443 5.86195 13.6443 6.59395C13.6443 7.32595 13.8972 7.94487 14.403 8.4507C14.9088 8.95653 15.5278 9.20945 16.2598 9.20945ZM4.75977 20.0939V6.09395V12.7092V12.4189V20.0939Z" fill="#FF6633"/>
<path d="M7 18V16.5466H16V18H7ZM7 14.2267V12.7733H14.1151V14.2267H7ZM7 10.4534V9H10.4336V10.4534H7Z" fill="#FF6633"/>
</g>
</svg>
