<svg width="16" height="16" viewBox="0 0 16 16" fill="none" xmlns="http://www.w3.org/2000/svg">
<g opacity="0.7">
<mask id="mask0_296_190" style="mask-type:alpha" maskUnits="userSpaceOnUse" x="0" y="0" width="16" height="16">
<rect width="16" height="16" fill="#D9D9D9"/>
</mask>
<g mask="url(#mask0_296_190)">
<path d="M8.5012 15C7.60214 15 6.75709 14.8294 5.96603 14.4882C5.17496 14.147 4.48688 13.684 3.90176 13.0991C3.31665 12.5142 2.85338 11.8264 2.51196 11.0357C2.17065 10.245 2 9.40014 2 8.5012C2 7.60214 2.1706 6.75709 2.51179 5.96603C2.85298 5.17496 3.31602 4.48688 3.90091 3.90176C4.48579 3.31665 5.1736 2.85338 5.96432 2.51196C6.75504 2.17065 7.59986 2 8.4988 2C9.39786 2 10.2429 2.1706 11.034 2.51179C11.825 2.85298 12.5131 3.31602 13.0982 3.90091C13.6834 4.48579 14.1466 5.1736 14.488 5.96432C14.8293 6.75504 15 7.59986 15 8.4988C15 9.39786 14.8294 10.2429 14.4882 11.034C14.147 11.825 13.684 12.5131 13.0991 13.0982C12.5142 13.6834 11.8264 14.1466 11.0357 14.488C10.245 14.8293 9.40014 15 8.5012 15ZM7.81579 13.9395V12.6053C7.43947 12.6053 7.11732 12.4713 6.84934 12.2033C6.58136 11.9353 6.44737 11.6132 6.44737 11.2368V10.5526L3.16316 7.26842C3.12895 7.47368 3.09759 7.67895 3.06908 7.88421C3.04057 8.08947 3.02632 8.29474 3.02632 8.5C3.02632 9.87982 3.47961 11.0886 4.38618 12.1263C5.29276 13.164 6.43597 13.7684 7.81579 13.9395ZM12.5368 12.1947C12.7649 11.9439 12.9702 11.673 13.1526 11.3822C13.3351 11.0914 13.4862 10.7893 13.6059 10.4757C13.7257 10.1621 13.8169 9.83991 13.8796 9.50921C13.9423 9.17851 13.9737 8.84211 13.9737 8.5C13.9737 7.37915 13.664 6.35551 13.0447 5.42909C12.4254 4.50267 11.5947 3.8342 10.5526 3.42367V3.71053C10.5526 4.08684 10.4186 4.40899 10.1507 4.67697C9.88268 4.94496 9.56053 5.07895 9.18421 5.07895H7.81579V6.44737C7.81579 6.64123 7.75022 6.80373 7.61908 6.93487C7.48794 7.06601 7.32544 7.13158 7.13158 7.13158H5.76316V8.5H9.86842C10.0623 8.5 10.2248 8.56557 10.3559 8.69671C10.4871 8.82785 10.5526 8.99035 10.5526 9.18421V11.2368H11.2368C11.5333 11.2368 11.8013 11.3252 12.0408 11.502C12.2803 11.6787 12.4456 11.9096 12.5368 12.1947Z" fill="black"/>
</g>
</g>
</svg>
