<svg width="15" height="15" viewBox="0 0 15 15" fill="none" xmlns="http://www.w3.org/2000/svg">
<path d="M11.1106 9.58644C11.9578 8.43018 12.3373 6.99661 12.1731 5.57254C12.0088 4.14847 11.3131 2.83892 10.2249 1.90589C9.13676 0.972863 7.73649 0.48516 6.30425 0.540354C4.872 0.595549 3.51341 1.18957 2.50027 2.20358C1.48713 3.21758 0.894165 4.5768 0.840003 6.00928C0.785841 7.44177 1.27448 8.84188 2.20815 9.92952C3.14183 11.0172 4.45169 11.7121 5.87568 11.8753C7.29966 12.0385 8.73276 11.658 9.88826 10.8098C9.91451 10.8448 9.94163 10.8781 9.97313 10.9105L13.3418 14.2796C13.5058 14.4438 13.7284 14.5361 13.9605 14.5361C14.1926 14.5362 14.4152 14.4441 14.5794 14.28C14.7436 14.1159 14.8359 13.8933 14.8359 13.6612C14.836 13.429 14.7439 13.2064 14.5798 13.0422L11.2112 9.67308C11.1799 9.64141 11.1463 9.61303 11.1106 9.58644ZM11.3363 6.2226C11.3363 6.85465 11.2119 7.48051 10.97 8.06445C10.7282 8.64839 10.3737 9.17897 9.92683 9.6259C9.47997 10.0728 8.94946 10.4274 8.3656 10.6692C7.78175 10.9111 7.15597 11.0356 6.52401 11.0356C5.89205 11.0356 5.26627 10.9111 4.68241 10.6692C4.09856 10.4274 3.56805 10.0728 3.12119 9.6259C2.67432 9.17897 2.31985 8.64839 2.07801 8.06445C1.83616 7.48051 1.71169 6.85465 1.71169 6.2226C1.71169 4.94611 2.2187 3.72191 3.12119 2.8193C4.02367 1.91668 5.2477 1.4096 6.52401 1.4096C7.80032 1.4096 9.02435 1.91668 9.92683 2.8193C10.8293 3.72191 11.3363 4.94611 11.3363 6.2226Z" fill="#091F2C"/>
</svg>
