<svg width="18" height="19" viewBox="0 0 18 19" fill="none" xmlns="http://www.w3.org/2000/svg">
<path d="M2 7.13464V11.802C2 13.5168 2 13.5168 3.55556 14.6089L7.83333 17.1811C8.47889 17.5694 9.52889 17.5694 10.1667 17.1811L14.4444 14.6089C16 13.5168 16 13.5168 16 11.8101V7.13464C16 5.42786 16 5.42786 14.4444 4.33585L10.1667 1.76355C9.52889 1.37528 8.47889 1.37528 7.83333 1.76355L3.55556 4.33585C2 5.42786 2 5.42786 2 7.13464Z" stroke="white" stroke-width="1.5" stroke-linecap="round" stroke-linejoin="round"/>
<path d="M9 11.7224C10.2426 11.7224 11.25 10.715 11.25 9.47235C11.25 8.22971 10.2426 7.22235 9 7.22235C7.75736 7.22235 6.75 8.22971 6.75 9.47235C6.75 10.715 7.75736 11.7224 9 11.7224Z" stroke="white" stroke-width="1.5" stroke-linecap="round" stroke-linejoin="round"/>
</svg>
