<svg width="20" height="21" viewBox="0 0 20 21" fill="none" xmlns="http://www.w3.org/2000/svg">
<mask id="mask0_559_438" style="mask-type:alpha" maskUnits="userSpaceOnUse" x="0" y="0" width="20" height="21">
<rect y="0.876831" width="20" height="20" fill="#D9D9D9"/>
</mask>
<g mask="url(#mask0_559_438)">
<path d="M6.03974 15V14.218H7.54839L7.17316 13.8552C6.74908 13.4588 6.44753 13.0152 6.26852 12.5243C6.08951 12.0334 6 11.5373 6 11.0361C6 10.1352 6.2612 9.32734 6.78361 8.61254C7.30602 7.89774 7.99105 7.40701 8.83871 7.14036V7.96442C8.216 8.2103 7.71626 8.61315 7.33948 9.17294C6.96262 9.73266 6.77419 10.3537 6.77419 11.0361C6.77419 11.4438 6.85062 11.8397 7.00348 12.224C7.15634 12.6083 7.39424 12.9636 7.71716 13.2897L8.04465 13.6206V12.193H8.81884V15H6.03974ZM11.1613 14.8596V14.0356C11.784 13.7897 12.2837 13.3869 12.6605 12.8271C13.0374 12.2673 13.2258 11.6463 13.2258 10.9639C13.2258 10.5562 13.1494 10.1603 12.9965 9.77597C12.8437 9.39168 12.6058 9.03645 12.2828 8.71028L11.9554 8.37938V9.80699H11.1812V7H13.9603V7.78196H12.4516L12.8268 8.14479C13.2351 8.55723 13.5327 9.00487 13.7196 9.48768C13.9065 9.97059 14 10.4627 14 10.9639C14 11.8648 13.7388 12.6727 13.2164 13.3875C12.694 14.1023 12.0089 14.593 11.1613 14.8596Z" fill="#091F2C"/>
<path d="M16.5882 3L18 3.01457V17.3001C18 17.7752 17.8353 18.1772 17.5059 18.5063C17.1765 18.8354 16.774 19 16.2986 19H3.70141C3.22596 19 2.82353 18.8354 2.49412 18.5063C2.16471 18.1772 2 17.7752 2 17.3001V4.71444C2 4.23942 2.16471 3.83735 2.49412 3.50824C2.82353 3.17913 3.22596 3.01457 3.70141 3.01457H16.7205C16.7205 3.43561 16.72 3.49115 16.7205 3.7211C16.7209 3.95105 16.7459 4.18637 16.7205 4.42505H3.70141C3.62894 4.42505 3.56259 4.45522 3.50235 4.51556C3.44196 4.57574 3.41176 4.64203 3.41176 4.71444V17.3001C3.41176 17.3725 3.44196 17.4388 3.50235 17.499C3.56259 17.5594 3.62894 17.5895 3.70141 17.5895H16.2986C16.3711 17.5895 16.4374 17.5594 16.4976 17.499C16.558 17.4388 16.5882 17.3725 16.5882 17.3001V3ZM3.41176 17.5895V4.42505V10.6455V10.3726V17.5895Z" fill="#091F2C"/>
</g>
</svg>
