<svg width="24" height="24" viewBox="0 0 24 24" fill="none" xmlns="http://www.w3.org/2000/svg">
<mask id="mask0_74_733" style="mask-type:alpha" maskUnits="userSpaceOnUse" x="0" y="0" width="24" height="24">
<rect width="24" height="24" fill="#D9D9D9"/>
</mask>
<g mask="url(#mask0_74_733)">
<path d="M3.90289 18.3077C3.37798 18.3077 2.92956 18.1266 2.55763 17.7644C2.18588 17.402 2 16.9651 2 16.4536V4.7772C2 4.26575 2.18588 3.82882 2.55763 3.46643C2.92956 3.10421 3.37798 2.9231 3.90289 2.9231H20.0971C20.622 2.9231 21.0704 3.10421 21.4424 3.46643C21.8141 3.82882 22 4.26575 22 4.7772V16.4536C22 16.9651 21.8141 17.402 21.4424 17.7644C21.0704 18.1266 20.622 18.3077 20.0971 18.3077H3.90289ZM9.36842 16.7692H20.0971C20.1917 16.7692 20.2693 16.7397 20.33 16.6805C20.3907 16.6214 20.4211 16.5457 20.4211 16.4536V4.7772C20.4211 4.68506 20.3907 4.60942 20.33 4.55028C20.2693 4.49113 20.1917 4.46156 20.0971 4.46156H9.36842V16.7692ZM7.78947 16.7692V4.46156H3.90289C3.80833 4.46156 3.7307 4.49113 3.67 4.55028C3.6093 4.60942 3.57895 4.68506 3.57895 4.7772V16.4536C3.57895 16.5457 3.6093 16.6214 3.67 16.6805C3.7307 16.7397 3.80833 16.7692 3.90289 16.7692H7.78947Z" fill="#008FD1"/>
</g>
</svg>
