<svg width="20" height="21" viewBox="0 0 20 21" fill="none" xmlns="http://www.w3.org/2000/svg">
<mask id="mask0_196_1742" style="mask-type:alpha" maskUnits="userSpaceOnUse" x="0" y="0" width="20" height="21">
<rect y="0.876831" width="20" height="20" fill="#D9D9D9"/>
</mask>
<g mask="url(#mask0_196_1742)">
<path d="M10.003 13.8577C10.9473 13.8577 11.7493 13.5272 12.409 12.8662C13.0688 12.2052 13.3986 11.4026 13.3986 10.4583C13.3986 9.51398 13.0681 8.71197 12.4072 8.05225C11.7462 7.39253 10.9436 7.06266 9.99924 7.06266C9.05494 7.06266 8.25293 7.39315 7.5932 8.05412C6.93348 8.7151 6.60362 9.51773 6.60362 10.462C6.60362 11.4063 6.93411 12.2084 7.59508 12.8681C8.25605 13.5278 9.05869 13.8577 10.003 13.8577ZM10.0011 12.7102C9.37612 12.7102 8.84487 12.4914 8.40737 12.0539C7.96987 11.6164 7.75112 11.0852 7.75112 10.4602C7.75112 9.83516 7.96987 9.30391 8.40737 8.86641C8.84487 8.42891 9.37612 8.21016 10.0011 8.21016C10.6261 8.21016 11.1574 8.42891 11.5949 8.86641C12.0324 9.30391 12.2511 9.83516 12.2511 10.4602C12.2511 11.0852 12.0324 11.6164 11.5949 12.0539C11.1574 12.4914 10.6261 12.7102 10.0011 12.7102ZM10.0022 16.2935C8.08591 16.2935 6.33987 15.7649 4.76404 14.7077C3.1882 13.6506 2.02793 12.2347 1.2832 10.4602C2.02793 8.68558 3.18779 7.26975 4.76279 6.21266C6.33793 5.15544 8.08369 4.62683 10.0001 4.62683C11.9163 4.62683 13.6624 5.15544 15.2382 6.21266C16.814 7.26975 17.9743 8.68558 18.719 10.4602C17.9743 12.2347 16.8145 13.6506 15.2395 14.7077C13.6643 15.7649 11.9186 16.2935 10.0022 16.2935ZM10.0011 15.0435C11.5706 15.0435 13.0115 14.6303 14.324 13.8039C15.6365 12.9775 16.64 11.8629 17.3345 10.4602C16.64 9.05739 15.6365 7.9428 14.324 7.11641C13.0115 6.29003 11.5706 5.87683 10.0011 5.87683C8.43168 5.87683 6.9907 6.29003 5.6782 7.11641C4.3657 7.9428 3.36223 9.05739 2.66779 10.4602C3.36223 11.8629 4.3657 12.9775 5.6782 13.8039C6.9907 14.6303 8.43168 15.0435 10.0011 15.0435Z" fill="#091F2C"/>
</g>
</svg>
