<svg width="24" height="24" viewBox="0 0 24 24" fill="none" xmlns="http://www.w3.org/2000/svg">
<mask id="mask0_241_358" style="mask-type:alpha" maskUnits="userSpaceOnUse" x="0" y="0" width="24" height="24">
<rect width="24" height="24" fill="#091f2c"/>
</mask>
<g mask="url(#mask0_241_358)">
<path d="M12 22V20.4004H19.0859C19.181 20.4004 19.2591 20.3696 19.3202 20.3081C19.3812 20.2466 19.4118 20.168 19.4118 20.0722V19.129H15.6651V11.582H19.4118V11.0645C19.4118 9.00276 18.6882 7.24318 17.2412 5.78575C15.7941 4.32833 14.0471 3.59961 12 3.59961C9.95294 3.59961 8.20588 4.32833 6.75882 5.78575C5.31176 7.24318 4.58824 9.00276 4.58824 11.0645V11.582H8.33488V19.129H4.91409C4.37921 19.129 3.92647 18.9423 3.55588 18.5691C3.18529 18.1959 3 17.7399 3 17.2012V11.0645C3 9.81767 3.23621 8.64462 3.70862 7.54533C4.18103 6.44604 4.82585 5.48494 5.64309 4.66202C6.46015 3.83893 7.41441 3.18949 8.50588 2.7137C9.59735 2.2379 10.7621 2 12 2C13.2379 2 14.4026 2.2379 15.4941 2.7137C16.5856 3.18949 17.5399 3.83893 18.3569 4.66202C19.1741 5.48494 19.819 6.44604 20.2914 7.54533C20.7638 8.64462 21 9.81767 21 11.0645V20.0722C21 20.6109 20.8147 21.0669 20.4441 21.4401C20.0735 21.8134 19.6208 22 19.0859 22H12ZM4.91409 17.5293H6.74665V13.1816H4.58824V17.2012C4.58824 17.297 4.61876 17.3756 4.67982 17.4371C4.74088 17.4986 4.81897 17.5293 4.91409 17.5293ZM17.2534 17.5293H19.4118V13.1816H17.2534V17.5293Z" fill="#091f2c"/>
</g>
</svg>
