<svg width="74" height="16" viewBox="0 0 74 16" fill="none" xmlns="http://www.w3.org/2000/svg">
<g clip-path="url(#clip0_196_1147)">
<path fill-rule="evenodd" clip-rule="evenodd" d="M50.8948 0.036251H50.6121C50.7052 0.0337028 50.7994 0.0336017 50.8948 0.036251ZM34.3022 15.1973C36.3078 14.9273 37.7402 11.9379 39.2667 8.75206C41.0495 5.03116 42.9608 1.04231 46.0637 0.805221H73.7645V0.0362549H50.612L50.6121 0.036251H0.601562V15.9663H33.9128L33.9128 15.9662H73.7637V15.1973H34.3022Z" fill="url(#paint0_linear_196_1147)"/>
<path fill-rule="evenodd" clip-rule="evenodd" d="M20.6286 13.436C19.5474 13.436 18.6221 13.2203 17.8582 12.7889C17.0942 12.3574 16.5099 11.7585 16.1028 10.9895C15.6931 10.2256 15.4922 9.33739 15.4922 8.32225V7.96442C15.4922 6.91883 15.6931 5.99759 16.0976 5.20325C16.502 4.4089 17.0757 3.78459 17.8159 3.33793C18.556 2.88874 19.4363 2.66541 20.4488 2.66541C21.2339 2.66541 21.9688 2.76946 22.6588 2.97502C23.3488 3.18059 23.9462 3.4902 24.4564 3.90133V6.22346H22.8386L22.5319 4.82257C22.3363 4.65761 22.0746 4.52818 21.7441 4.4292C21.4163 4.33277 21.041 4.28201 20.6154 4.28201C20.0047 4.28201 19.4813 4.43682 19.0372 4.7439C18.5957 5.05098 18.2573 5.47733 18.0221 6.03058C17.7868 6.58383 17.6705 7.22083 17.6705 7.94919V8.32225C17.6705 9.03539 17.7868 9.64954 18.0194 10.1749C18.2494 10.7002 18.5931 11.1063 19.0398 11.393C19.4892 11.6824 20.0417 11.8245 20.6973 11.8245C21.0806 11.8245 21.4322 11.7915 21.7547 11.7204C22.0772 11.6494 22.3442 11.5682 22.5531 11.4666V9.69015L20.996 9.57341V8.10146H24.7498C24.7498 9.88049 24.7498 11.6595 24.7498 13.436H22.9073L22.8597 13.1721C22.2094 13.3472 21.4666 13.436 20.6286 13.436Z" fill="#FEFEFE"/>
<path d="M30.8358 13.436C30.1035 13.4335 29.432 13.304 28.8293 13.0401C28.2266 12.7762 27.7058 12.4056 27.267 11.9311C26.8308 11.4514 26.4951 10.8931 26.2598 10.2459C26.0245 9.60386 25.9082 8.8958 25.9082 8.12938V7.97203C25.9082 7.20814 26.0245 6.5077 26.2598 5.86055C26.4951 5.21594 26.8308 4.65253 27.2643 4.17542C27.7005 3.69577 28.2187 3.32271 28.8214 3.06131C29.4241 2.79737 30.0956 2.66541 30.8278 2.66541C31.568 2.66541 32.2421 2.79737 32.8501 3.06131C33.4608 3.32271 33.9868 3.69577 34.4257 4.17542C34.8619 4.65253 35.2029 5.21594 35.4381 5.86055C35.6761 6.5077 35.795 7.20814 35.795 7.97203V8.12938C35.795 8.8958 35.6761 9.60386 35.4381 10.2459C35.2029 10.8931 34.8619 11.4514 34.4257 11.9311C33.9868 12.4056 33.4608 12.7762 32.8554 13.0401C32.2474 13.304 31.5759 13.4335 30.8358 13.436ZM30.8358 11.8016C31.4543 11.8016 31.9698 11.6494 32.3796 11.3448C32.7893 11.0377 33.096 10.6063 33.3048 10.0581C33.5137 9.50489 33.6141 8.86281 33.6141 8.12938V7.9568C33.6141 7.23352 33.511 6.59652 33.2995 6.04835C33.0907 5.50017 32.7787 5.07128 32.3664 4.7642C31.9566 4.45712 31.4411 4.30485 30.8278 4.30485C30.2198 4.30485 29.7149 4.45712 29.3104 4.76166C28.9033 5.0662 28.602 5.49002 28.4011 6.0382C28.1949 6.58383 28.097 7.22337 28.097 7.9568V8.12938C28.097 8.86281 28.1949 9.50489 28.4011 10.0581C28.602 10.6063 28.906 11.0377 29.3131 11.3448C29.7202 11.6494 30.2277 11.8016 30.8358 11.8016Z" fill="#FEFEFE"/>
<path d="M47.2798 13.4005C46.5739 13.3979 45.9421 13.2711 45.3817 13.0097C44.8239 12.7533 44.3507 12.3879 43.9568 11.9158C43.5656 11.4413 43.2669 10.8829 43.058 10.2358C42.8518 9.58864 42.7461 8.87551 42.7461 8.09132V7.94158C42.7461 7.165 42.8518 6.45187 43.058 5.80218C43.2669 5.15503 43.5656 4.59163 43.9568 4.11706C44.3507 3.64248 44.8239 3.27703 45.3817 3.01817C45.9421 2.75931 46.5739 2.62988 47.2798 2.62988C48.0226 2.62988 48.6755 2.75931 49.2386 3.01817C49.8043 3.27703 50.2775 3.64248 50.6582 4.11706C51.0415 4.59163 51.3323 5.15503 51.5253 5.80218C51.7209 6.45187 51.8161 7.165 51.8161 7.94158V8.09132C51.8161 8.87551 51.7209 9.58864 51.5253 10.2358C51.3323 10.8829 51.0415 11.4413 50.6582 11.9158C50.2775 12.3879 49.8043 12.7533 49.2386 13.0097C48.6755 13.2711 48.0226 13.3979 47.2798 13.4005ZM47.2798 12.2204C48.0014 12.2204 48.5883 12.0478 49.0351 11.7027C49.4792 11.355 49.8096 10.8753 50.0185 10.2536C50.2299 9.63432 50.333 8.91104 50.333 8.09132V7.92889C50.333 7.11425 50.2273 6.39604 50.0132 5.77934C49.8017 5.16772 49.4712 4.683 49.0218 4.33785C48.5724 3.99017 47.9935 3.81505 47.2798 3.81505C46.6242 3.81505 46.069 3.9927 45.6143 4.34039C45.1596 4.69061 44.8186 5.1728 44.5834 5.78696C44.3481 6.40365 44.2291 7.11932 44.2291 7.92889V8.09132C44.2291 8.90596 44.3481 9.62671 44.5834 10.2459C44.8186 10.8677 45.1596 11.3524 45.6143 11.7001C46.069 12.0453 46.6242 12.2204 47.2798 12.2204ZM52.9607 13.2482V12.3422L54.1847 12.1417V3.89373L52.9607 3.69324V2.77962H54.1847H55.673L61.0209 10.9413L61.0658 10.9261V3.89373L59.7255 3.69324V2.77962H62.4193H63.6432V3.69324L62.4193 3.89373V13.2482H61.0737L55.5857 5.04337L55.5382 5.0586V12.1417L56.8784 12.3422V13.2482H52.9607ZM64.8698 13.2482V12.3422L66.0912 12.1417V3.89373L64.8698 3.69324V2.77962H72.9458V5.29715H71.7615L71.595 3.87343H67.5663V7.27921H71.5871V8.39332H67.5663V12.1823H71.8356L71.9995 10.7408H73.1758V13.2482H64.8698Z" fill="#091F2C"/>
<path d="M14.3644 2.93188V8.0507C14.3644 11.0454 11.8372 13.4791 8.73103 13.4791C5.62752 13.4791 3.09766 11.0454 3.09766 8.0507V2.92934C3.09766 2.78468 3.2219 2.66541 3.37523 2.66541H6.17737C6.3307 2.66541 6.4523 2.78468 6.4523 2.92934V7.71571C6.4523 8.92626 7.47535 9.91094 8.73103 9.91094C9.98671 9.91094 11.0098 8.92626 11.0098 7.71571V4.41652C11.0098 4.26932 11.134 4.15258 11.2847 4.15258H12.6884C12.8391 4.15258 12.9633 4.26932 12.9633 4.41652V7.88321C12.9633 10.1317 11.0653 11.9615 8.73103 11.9615C6.39943 11.9615 4.50137 10.1317 4.50137 7.88321V4.41652C4.50137 4.26932 4.62298 4.15258 4.7763 4.15258C4.92963 4.15258 5.05123 4.26932 5.05123 4.41652V7.88321C5.05123 9.83734 6.70344 11.4311 8.73103 11.4311C10.7613 11.4311 12.4108 9.83734 12.4108 7.88321V4.68299H11.5623V7.71571C11.5623 9.22065 10.2907 10.4439 8.73103 10.4439C7.17134 10.4439 5.90245 9.22065 5.90245 7.71571V3.19581H3.65016V8.0507C3.65016 10.7535 5.93153 12.9487 8.73103 12.9487C11.5332 12.9487 13.8119 10.7535 13.8119 8.0507V3.19581H11.2873C11.134 3.19581 11.0098 3.07907 11.0098 2.93188C11.0098 2.78468 11.134 2.66541 11.2873 2.66541H14.0868C14.2402 2.66541 14.3644 2.78468 14.3644 2.93188Z" fill="#FEFEFE"/>
</g>
<defs>
<linearGradient id="paint0_linear_196_1147" x1="73.7645" y1="0.0343018" x2="42.8081" y2="45.0141" gradientUnits="userSpaceOnUse">
<stop stop-color="#01D895"/>
<stop offset="1" stop-color="#1DAEFD"/>
</linearGradient>
<clipPath id="clip0_196_1147">
<rect width="73.1625" height="16" fill="white" transform="translate(0.601562)"/>
</clipPath>
</defs>
</svg>
