<svg width="32" height="32" viewBox="0 0 32 32" fill="none" xmlns="http://www.w3.org/2000/svg">
<rect width="32" height="32" rx="4" fill="white"/>
<path d="M26 6.49242V15.9432C26 21.4924 21.5114 26 16 26C10.4886 26 6 21.4924 6 15.9432V6.49242C6 6.20833 6.22727 6 6.49242 6H11.4735C11.7386 6 11.947 6.20833 11.947 6.49242V15.3371C11.947 17.572 13.7652 19.3902 16 19.3902C18.2348 19.3902 20.053 17.572 20.053 15.3371V9.23864C20.053 8.95455 20.2614 8.74621 20.5265 8.74621H23.0265C23.2917 8.74621 23.5 8.95455 23.5 9.23864V15.6402C23.5 19.8068 20.1477 23.178 16 23.178C11.8523 23.178 8.48106 19.8068 8.48106 15.6402V9.23864C8.48106 8.95455 8.70833 8.74621 8.97348 8.74621C9.23864 8.74621 9.46591 8.95455 9.46591 9.23864V15.6402C9.46591 19.2576 12.4015 22.2121 16 22.2121C19.5985 22.2121 22.5341 19.2576 22.5341 15.6402V9.73106H21.0189V15.3371C21.0189 18.1212 18.7652 20.375 16 20.375C13.2348 20.375 10.9811 18.1212 10.9811 15.3371V6.98485H6.98485V15.9432C6.98485 20.9432 11.0189 25.0152 16 25.0152C20.9811 25.0152 25.0152 20.9432 25.0152 15.9432V6.98485H20.5455C20.2614 6.98485 20.053 6.75758 20.053 6.49242C20.053 6.20833 20.2614 6 20.5455 6H25.5076C25.7727 6 26 6.20833 26 6.49242Z" fill="#05324A"/>
</svg>
